# Blender v2.71 (sub 0) OBJ File: 'skybox.blend'
# www.blender.org
mtllib skybox.mtl
o Cube
v 1.200000 -1.200000 -1.200000
v 1.200000 -1.200000 1.200000
v -1.200000 -1.200000 1.200000
v -1.199999 -1.200000 -1.200000
v 1.200000 1.200000 -1.199999
v 1.199999 1.200000 1.200001
v -1.200001 1.200000 1.200000
v -1.200000 1.200000 -1.200000
vt 0.500194 0.665629
vt 0.500195 0.995000
vt 0.250560 0.995000
vt 0.250560 0.336259
vt 0.250559 0.006889
vt 0.500194 0.006889
vt 0.000926 0.665630
vt 0.000925 0.336260
vt 0.749828 0.665629
vt 0.749828 0.336259
vt 0.999462 0.336258
vt 0.500194 0.336259
vt 0.250560 0.665630
vt 0.999462 0.665628
vn 0.000000 1.000000 -0.000000
vn 0.000000 -1.000000 0.000000
vn -1.000000 -0.000000 -0.000000
vn 0.000000 -0.000000 -1.000000
vn 1.000000 0.000000 0.000000
vn -0.000000 -0.000000 1.000000
usemtl Material
s off
f 4/1/1 3/2/1 2/3/1
f 5/4/2 6/5/2 7/6/2
f 2/7/3 6/8/3 5/4/3
f 3/9/4 7/10/4 6/11/4
f 4/1/5 8/12/5 7/10/5
f 8/12/6 4/1/6 1/13/6
f 1/13/1 4/1/1 2/3/1
f 8/12/2 5/4/2 7/6/2
f 1/13/3 2/7/3 5/4/3
f 2/14/4 3/9/4 6/11/4
f 3/9/5 4/1/5 7/10/5
f 5/4/6 8/12/6 1/13/6
