# Blender v2.71 (sub 0) OBJ File: 'tire.blend'
# www.blender.org
mtllib tire.mtl
o Cylinder
v 0.220969 0.975281 -0.262624
v 0.220969 0.975281 0.262624
v 0.577373 0.816481 -0.262624
v 0.577373 0.816481 0.262624
v 0.845876 0.533379 -0.262624
v 0.845876 0.533379 0.262624
v 0.985603 0.169075 -0.262624
v 0.985603 0.169075 0.262624
v 0.975281 -0.220969 -0.262624
v 0.975281 -0.220969 0.262624
v 0.816481 -0.577373 -0.262624
v 0.816481 -0.577373 0.262624
v 0.533379 -0.845876 -0.262624
v 0.533379 -0.845876 0.262624
v 0.169075 -0.985603 -0.262624
v 0.169075 -0.985603 0.262624
v -0.220969 -0.975281 -0.262624
v -0.220969 -0.975281 0.262624
v -0.577372 -0.816481 -0.262624
v -0.577372 -0.816481 0.262624
v -0.845876 -0.533379 -0.262624
v -0.845876 -0.533379 0.262624
v -0.985603 -0.169075 -0.262624
v -0.985603 -0.169075 0.262624
v -0.975281 0.220969 -0.262624
v -0.975281 0.220969 0.262624
v -0.816481 0.577373 -0.262624
v -0.816481 0.577373 0.262624
v -0.533379 0.845877 -0.262624
v -0.533379 0.845877 0.262624
v -0.169074 0.985603 -0.262624
v -0.169074 0.985603 0.262624
v 0.220969 0.975281 -0.262624
v 0.577373 0.816481 -0.262624
v 0.845876 0.533379 -0.262624
v 0.985603 0.169075 -0.262624
v 0.975281 -0.220969 -0.262624
v 0.816481 -0.577373 -0.262624
v 0.533379 -0.845876 -0.262624
v 0.169075 -0.985603 -0.262624
v -0.220969 -0.975281 -0.262624
v -0.577372 -0.816481 -0.262624
v -0.845876 -0.533379 -0.262624
v -0.985603 -0.169075 -0.262624
v -0.975281 0.220969 -0.262624
v -0.816481 0.577373 -0.262624
v -0.533379 0.845877 -0.262624
v -0.169074 0.985603 -0.262624
v 0.577373 0.816481 0.262624
v 0.220969 0.975281 0.262624
v 0.845876 0.533379 0.262624
v 0.985603 0.169075 0.262624
v 0.975281 -0.220969 0.262624
v 0.816481 -0.577373 0.262624
v 0.533379 -0.845876 0.262624
v 0.169075 -0.985603 0.262624
v -0.220969 -0.975281 0.262624
v -0.577372 -0.816481 0.262624
v -0.845876 -0.533379 0.262624
v -0.985603 -0.169075 0.262624
v -0.975281 0.220969 0.262624
v -0.816481 0.577373 0.262624
v -0.533379 0.845877 0.262624
v -0.169074 0.985603 0.262624
v -0.133970 -0.591296 -0.315144
v -0.350051 -0.495019 -0.315144
v 0.323379 -0.512841 -0.315144
v 0.102507 -0.597555 -0.315144
v -0.102507 0.597555 -0.315144
v 0.133970 0.591296 -0.315144
v 0.591296 -0.133970 -0.315144
v 0.495018 -0.350051 -0.315144
v 0.512841 0.323379 -0.315144
v 0.597555 0.102507 -0.315144
v -0.495018 0.350051 -0.315144
v -0.323378 0.512841 -0.315144
v 0.350051 0.495018 -0.315144
v -0.597555 -0.102507 -0.315144
v -0.591296 0.133970 -0.315144
v -0.512840 -0.323379 -0.315144
v 0.591296 -0.133970 0.315144
v 0.597555 0.102507 0.315144
v -0.495018 0.350051 0.315144
v -0.591296 0.133970 0.315144
v 0.512841 0.323379 0.315144
v 0.350051 0.495019 0.315144
v -0.597555 -0.102507 0.315144
v -0.512840 -0.323379 0.315144
v -0.350051 -0.495019 0.315144
v -0.133970 -0.591296 0.315144
v 0.102507 -0.597555 0.315144
v 0.323379 -0.512841 0.315144
v 0.495018 -0.350051 0.315144
v -0.323378 0.512841 0.315144
v -0.102507 0.597555 0.315144
v 0.133970 0.591296 0.315144
v 0.000000 0.000000 0.225346
v 0.000000 -0.000000 -0.225346
v -0.133970 -0.591296 -0.225342
v -0.350051 -0.495019 -0.225342
v 0.323379 -0.512841 -0.225343
v 0.102507 -0.597555 -0.225342
v -0.102507 0.597555 -0.225343
v 0.133970 0.591296 -0.225343
v 0.591296 -0.133970 -0.225343
v 0.495018 -0.350051 -0.225343
v 0.512841 0.323379 -0.225343
v 0.597555 0.102507 -0.225343
v -0.495018 0.350051 -0.225343
v -0.323378 0.512841 -0.225343
v 0.350051 0.495018 -0.225343
v -0.597555 -0.102507 -0.225343
v -0.591296 0.133970 -0.225343
v -0.512840 -0.323379 -0.225343
v 0.591296 -0.133970 0.225343
v 0.597555 0.102507 0.225343
v -0.495018 0.350051 0.225343
v -0.591296 0.133970 0.225343
v 0.512841 0.323379 0.225342
v 0.350051 0.495019 0.225343
v -0.597555 -0.102507 0.225343
v -0.512840 -0.323379 0.225343
v -0.350051 -0.495019 0.225343
v -0.133970 -0.591296 0.225343
v 0.102507 -0.597555 0.225343
v 0.323379 -0.512841 0.225343
v 0.495018 -0.350051 0.225343
v -0.323378 0.512841 0.225342
v -0.102507 0.597555 0.225343
v 0.133970 0.591296 0.225343
vt 0.500013 0.003779
vt 0.562501 0.003780
vt 0.562501 0.179558
vt 0.624989 0.003781
vt 0.624989 0.179558
vt 0.687476 0.003782
vt 0.687476 0.179558
vt 0.749963 0.003783
vt 0.749963 0.179558
vt 0.812450 0.003784
vt 0.812449 0.179559
vt 0.874936 0.003785
vt 0.874936 0.179559
vt 0.937422 0.003786
vt 0.937422 0.179559
vt 0.999908 0.003787
vt 0.999908 0.179560
vt 0.000092 0.003777
vt 0.062583 0.003777
vt 0.062583 0.179564
vt 0.125074 0.003776
vt 0.125075 0.179563
vt 0.187565 0.003776
vt 0.187566 0.179562
vt 0.250056 0.003776
vt 0.312546 0.003776
vt 0.312547 0.179559
vt 0.375036 0.003777
vt 0.375036 0.179558
vt 0.437525 0.003778
vt 0.500013 0.179558
vt 0.209306 0.447353
vt 0.173691 0.533085
vt 0.640306 0.626405
vt 0.604690 0.712137
vt 0.173594 0.625920
vt 0.209031 0.711725
vt 0.275018 0.381778
vt 0.604964 0.447765
vt 0.539388 0.382052
vt 0.453657 0.346437
vt 0.360338 0.813053
vt 0.453173 0.813149
vt 0.274607 0.777438
vt 0.360824 0.346341
vt 0.190516 0.903733
vt 0.483016 0.961914
vt 0.538978 0.777712
vt 0.483017 0.197576
vt 0.789168 0.655764
vt 0.730986 0.796227
vt 0.789168 0.503727
vt 0.640403 0.533571
vt 0.083011 0.363263
vt 0.190517 0.255757
vt 0.623480 0.255758
vt 0.024828 0.503726
vt 0.083010 0.796227
vt 0.330980 0.961915
vt 0.623480 0.903733
vt 0.330981 0.197575
vt 0.730986 0.363264
vt 0.024828 0.655763
vt 0.406998 0.579745
vt 0.000092 0.179564
vt 0.250056 0.179561
vt 0.437525 0.179558
vn 0.221000 0.975300 -0.000000
vn 0.577400 0.816500 -0.000000
vn 0.845900 0.533400 -0.000000
vn 0.985600 0.169100 -0.000000
vn 0.975300 -0.221000 0.000000
vn 0.816500 -0.577400 0.000000
vn 0.533400 -0.845900 -0.000000
vn 0.169100 -0.985600 0.000000
vn -0.221000 -0.975300 0.000000
vn -0.577400 -0.816500 0.000000
vn -0.845900 -0.533400 0.000000
vn -0.985600 -0.169100 0.000000
vn -0.975300 0.221000 0.000000
vn -0.816500 0.577400 -0.000000
vn -0.533400 0.845900 -0.000000
vn -0.169100 0.985600 -0.000000
vn 0.488800 -0.345600 -0.801000
vn 0.609200 -0.430800 -0.665700
vn 0.727700 -0.164900 -0.665700
vn -0.583800 0.132300 -0.801000
vn -0.488800 0.345600 -0.801000
vn -0.609200 0.430800 -0.665700
vn 0.583800 -0.132300 0.801000
vn 0.727700 -0.164900 0.665700
vn 0.609200 -0.430800 0.665700
vn 0.345600 0.488800 0.801000
vn 0.430800 0.609200 0.665700
vn 0.631200 0.398000 0.665700
vn 0.319300 -0.506300 -0.801000
vn 0.398000 -0.631200 -0.665700
vn 0.506300 0.319300 0.801000
vn 0.735400 0.126200 0.665700
vn -0.488800 0.345600 0.801000
vn -0.609200 0.430800 0.665700
vn -0.398000 0.631200 0.665700
vn 0.583800 -0.132300 -0.801000
vn 0.735400 0.126200 -0.665700
vn -0.319300 0.506300 0.801000
vn -0.126200 0.735400 0.665700
vn 0.132300 0.583800 -0.801000
vn 0.164900 0.727700 -0.665700
vn -0.126200 0.735400 -0.665700
vn 0.488800 -0.345600 0.801000
vn 0.398000 -0.631200 0.665700
vn 0.101200 -0.590000 -0.801000
vn 0.126200 -0.735400 -0.665700
vn 0.345600 0.488800 -0.801000
vn 0.430800 0.609200 -0.665700
vn 0.101200 -0.590000 0.801000
vn 0.319300 -0.506300 0.801000
vn -0.506300 -0.319300 -0.801000
vn -0.631200 -0.398000 -0.665700
vn -0.430800 -0.609200 -0.665700
vn -0.132300 -0.583800 -0.801000
vn -0.164900 -0.727700 -0.665700
vn -0.076300 -0.108000 -0.991200
vn 0.022400 -0.130300 -0.991200
vn -0.101200 0.590000 -0.801000
vn -0.319300 0.506300 -0.801000
vn 0.029200 0.129000 -0.991200
vn 0.129000 -0.029200 -0.991200
vn 0.108000 -0.076300 -0.991200
vn 0.130300 0.022400 -0.991200
vn -0.590000 -0.101200 -0.801000
vn -0.108000 0.076300 -0.991200
vn -0.070500 0.111800 -0.991200
vn 0.076300 0.108000 -0.991200
vn -0.345600 -0.488800 -0.801000
vn -0.129000 0.029200 -0.991200
vn 0.590000 0.101200 -0.801000
vn -0.111800 -0.070500 -0.991200
vn 0.506300 0.319300 -0.801000
vn -0.029200 -0.129000 -0.991200
vn 0.070500 -0.111800 -0.991200
vn -0.022400 0.130300 -0.991200
vn 0.111800 0.070500 -0.991200
vn -0.130300 -0.022400 -0.991200
vn 0.130300 0.022400 0.991200
vn -0.590000 -0.101200 0.801000
vn -0.583800 0.132300 0.801000
vn -0.129000 0.029200 0.991200
vn 0.076300 0.108000 0.991200
vn -0.345600 -0.488800 0.801000
vn -0.506300 -0.319300 0.801000
vn -0.130300 -0.022400 0.991200
vn -0.111800 -0.070500 0.991200
vn -0.029200 -0.129000 0.991200
vn 0.132300 0.583800 0.801000
vn 0.022400 -0.130300 0.991200
vn 0.070500 -0.111800 0.991200
vn 0.129000 -0.029200 0.991200
vn -0.108000 0.076300 0.991200
vn 0.111800 0.070500 0.991200
vn -0.022400 0.130300 0.991200
vn -0.070500 0.111800 0.991200
vn 0.590000 0.101200 0.801000
vn 0.029200 0.129000 0.991200
vn -0.132300 -0.583800 0.801000
vn -0.076300 -0.108000 0.991200
vn -0.101200 0.590000 0.801000
vn 0.108000 -0.076300 0.991200
vn -0.735400 -0.126200 0.665700
vn -0.727700 0.164900 0.665700
vn -0.164900 -0.727700 0.665700
vn -0.430800 -0.609200 0.665700
vn 0.631200 0.398000 -0.665700
vn -0.735400 -0.126200 -0.665700
vn -0.631200 -0.398000 0.665700
vn 0.164900 0.727700 0.665700
vn 0.126200 -0.735400 0.665700
vn -0.398000 0.631200 -0.665700
vn -0.727700 0.164900 -0.665700
vn 0.000000 0.000000 1.000000
vn 0.000000 0.000000 -1.000000
usemtl None
s 1
f 2/1/1 4/2/2 3/3/2
f 4/2/2 6/4/3 5/5/3
f 6/4/3 8/6/4 7/7/4
f 8/6/4 10/8/5 9/9/5
f 10/8/5 12/10/6 11/11/6
f 12/10/6 14/12/7 13/13/7
f 14/12/7 16/14/8 15/15/8
f 16/14/8 18/16/9 17/17/9
f 18/18/9 20/19/10 19/20/10
f 20/19/10 22/21/11 21/22/11
f 22/21/11 24/23/12 23/24/12
f 23/24/12 24/23/12 26/25/13
f 26/25/13 28/26/14 27/27/14
f 28/26/14 30/28/15 29/29/15
f 64/30/16 2/1/1 1/31/1
f 29/29/15 30/28/15 64/30/16
f 75/32/17 109/32/18 113/33/19
f 71/34/20 72/35/21 106/35/22
f 84/36/23 118/36/24 117/37/25
f 89/38/26 123/38/27 122/32/28
f 75/32/17 76/38/29 110/38/30
f 88/32/31 122/32/28 121/33/32
f 93/39/33 127/39/34 126/40/35
f 79/33/36 113/33/19 112/36/37
f 92/40/38 126/40/35 125/41/39
f 65/42/40 99/42/41 102/43/42
f 83/37/43 117/37/25 128/44/44
f 69/45/45 103/45/46 110/38/30
f 66/44/47 100/44/48 99/42/41
f 95/42/49 94/44/50 128/44/44
f 73/39/51 107/39/52 111/40/53
f 70/41/54 104/41/55 103/45/46
f 42/46/56 66/44/47 65/42/40
f 40/47/57 68/43/58 67/48/59
f 33/49/60 70/41/54 69/45/45
f 37/50/61 38/51/62 72/35/21
f 36/52/63 74/53/64 73/39/51
f 46/54/65 47/55/66 76/38/29
f 33/49/60 34/56/67 77/40/68
f 45/57/69 79/33/36 78/36/70
f 43/58/71 80/37/72 66/44/47
f 41/59/73 65/42/40 68/43/58
f 38/51/62 39/60/74 67/48/59
f 47/55/66 48/61/75 69/45/45
f 36/52/63 37/50/61 71/34/20
f 35/62/76 73/39/51 77/40/68
f 45/57/69 46/54/65 75/32/17
f 44/63/77 78/36/70 80/37/72
f 52/50/78 82/34/79 81/53/80
f 61/63/81 84/36/23 83/37/43
f 49/60/82 86/48/83 85/35/84
f 60/57/85 59/54/86 88/32/31
f 57/61/87 90/45/88 89/38/26
f 56/49/89 55/56/90 92/40/38
f 53/52/91 81/53/80 93/39/33
f 62/58/92 83/37/43 94/44/50
f 51/51/93 85/35/84 82/34/79
f 32/59/94 63/46/95 94/44/50
f 60/57/85 87/33/96 84/36/23
f 50/47/97 96/43/98 86/48/83
f 58/55/99 89/38/26 88/32/31
f 56/49/89 91/41/100 90/45/88
f 54/62/101 93/39/33 92/40/38
f 32/59/94 95/42/49 96/43/98
f 82/34/79 116/34/102 115/53/103
f 96/43/98 130/43/104 120/48/105
f 78/36/70 112/36/37 114/37/106
f 74/53/64 108/53/107 107/39/52
f 86/48/83 120/48/105 119/35/108
f 91/41/100 125/41/39 124/45/109
f 77/40/68 111/40/53 104/41/55
f 90/45/88 124/45/109 123/38/27
f 95/42/49 129/42/110 130/43/104
f 80/37/72 114/37/106 100/44/48
f 81/53/80 115/53/103 127/39/34
f 67/48/59 101/48/111 106/35/22
f 82/34/79 85/35/84 119/35/108
f 71/34/20 105/34/112 108/53/107
f 68/43/58 102/43/42 101/48/111
f 87/33/96 121/33/32 118/36/24
f 130/43/104 129/42/110 97/64/113
f 126/40/35 127/39/34 97/64/113
f 124/45/109 125/41/39 97/64/113
f 122/32/28 123/38/27 97/64/113
f 120/48/105 130/43/104 97/64/113
f 118/36/24 121/33/32 97/64/113
f 129/42/110 128/44/44 97/64/113
f 116/34/102 119/35/108 97/64/113
f 128/44/44 117/37/25 97/64/113
f 127/39/34 115/53/103 97/64/113
f 125/41/39 126/40/35 97/64/113
f 123/38/27 124/45/109 97/64/113
f 121/33/32 122/32/28 97/64/113
f 119/35/108 120/48/105 97/64/113
f 117/37/25 118/36/24 97/64/113
f 115/53/103 116/34/102 97/64/113
f 99/42/41 100/44/48 98/64/114
f 101/48/111 102/43/42 98/64/114
f 103/45/46 104/41/55 98/64/114
f 105/34/112 106/35/22 98/64/114
f 107/39/52 108/53/107 98/64/114
f 109/32/18 110/38/30 98/64/114
f 104/41/55 111/40/53 98/64/114
f 112/36/37 113/33/19 98/64/114
f 100/44/48 114/37/106 98/64/114
f 102/43/42 99/42/41 98/64/114
f 106/35/22 101/48/111 98/64/114
f 110/38/30 103/45/46 98/64/114
f 108/53/107 105/34/112 98/64/114
f 111/40/53 107/39/52 98/64/114
f 113/33/19 109/32/18 98/64/114
f 114/37/106 112/36/37 98/64/114
f 1/31/1 2/1/1 3/3/2
f 3/3/2 4/2/2 5/5/3
f 5/5/3 6/4/3 7/7/4
f 7/7/4 8/6/4 9/9/5
f 9/9/5 10/8/5 11/11/6
f 11/11/6 12/10/6 13/13/7
f 13/13/7 14/12/7 15/15/8
f 15/15/8 16/14/8 17/17/9
f 17/65/9 18/18/9 19/20/10
f 19/20/10 20/19/10 21/22/11
f 21/22/11 22/21/11 23/24/12
f 25/66/13 23/24/12 26/25/13
f 25/66/13 26/25/13 27/27/14
f 27/27/14 28/26/14 29/29/15
f 31/67/16 64/30/16 1/31/1
f 31/67/16 29/29/15 64/30/16
f 79/33/36 75/32/17 113/33/19
f 105/34/112 71/34/20 106/35/22
f 83/37/43 84/36/23 117/37/25
f 88/32/31 89/38/26 122/32/28
f 109/32/18 75/32/17 110/38/30
f 87/33/96 88/32/31 121/33/32
f 92/40/38 93/39/33 126/40/35
f 78/36/70 79/33/36 112/36/37
f 91/41/100 92/40/38 125/41/39
f 68/43/58 65/42/40 102/43/42
f 94/44/50 83/37/43 128/44/44
f 76/38/29 69/45/45 110/38/30
f 65/42/40 66/44/47 99/42/41
f 129/42/110 95/42/49 128/44/44
f 77/40/68 73/39/51 111/40/53
f 69/45/45 70/41/54 103/45/46
f 41/59/73 42/46/56 65/42/40
f 39/60/74 40/47/57 67/48/59
f 48/61/75 33/49/60 69/45/45
f 71/34/20 37/50/61 72/35/21
f 35/62/76 36/52/63 73/39/51
f 75/32/17 46/54/65 76/38/29
f 70/41/54 33/49/60 77/40/68
f 44/63/77 45/57/69 78/36/70
f 42/46/56 43/58/71 66/44/47
f 40/47/57 41/59/73 68/43/58
f 72/35/21 38/51/62 67/48/59
f 76/38/29 47/55/66 69/45/45
f 74/53/64 36/52/63 71/34/20
f 34/56/67 35/62/76 77/40/68
f 79/33/36 45/57/69 75/32/17
f 43/58/71 44/63/77 80/37/72
f 53/52/91 52/50/78 81/53/80
f 62/58/92 61/63/81 83/37/43
f 51/51/93 49/60/82 85/35/84
f 87/33/96 60/57/85 88/32/31
f 58/55/99 57/61/87 89/38/26
f 91/41/100 56/49/89 92/40/38
f 54/62/101 53/52/91 93/39/33
f 63/46/95 62/58/92 94/44/50
f 52/50/78 51/51/93 82/34/79
f 95/42/49 32/59/94 94/44/50
f 61/63/81 60/57/85 84/36/23
f 49/60/82 50/47/97 86/48/83
f 59/54/86 58/55/99 88/32/31
f 57/61/87 56/49/89 90/45/88
f 55/56/90 54/62/101 92/40/38
f 50/47/97 32/59/94 96/43/98
f 81/53/80 82/34/79 115/53/103
f 86/48/83 96/43/98 120/48/105
f 80/37/72 78/36/70 114/37/106
f 73/39/51 74/53/64 107/39/52
f 85/35/84 86/48/83 119/35/108
f 90/45/88 91/41/100 124/45/109
f 70/41/54 77/40/68 104/41/55
f 89/38/26 90/45/88 123/38/27
f 96/43/98 95/42/49 130/43/104
f 66/44/47 80/37/72 100/44/48
f 93/39/33 81/53/80 127/39/34
f 72/35/21 67/48/59 106/35/22
f 116/34/102 82/34/79 119/35/108
f 74/53/64 71/34/20 108/53/107
f 67/48/59 68/43/58 101/48/111
f 84/36/23 87/33/96 118/36/24
