# Blender v2.70 (sub 0) OBJ File: ''
# www.blender.org
mtllib textured.mtl
o Cube.001_Cube.002
v -15.000000 -15.000000 15.000000
v -15.000000 -15.000000 -15.000000
v 15.000000 -15.000000 -15.000000
v 15.000000 -15.000000 15.000000
v -15.000000 15.000000 15.000000
v -15.000000 15.000000 -15.000000
v 15.000000 15.000000 -15.000000
v 15.000000 15.000000 15.000000
vt 1.000000 0.000000
vt 0.000000 1.000000
vt 1.000000 1.000000
vt 0.000000 0.000000
vn 1.000000 0.000000 0.000000
vn 0.000000 0.000000 1.000000
vn -1.000000 0.000000 0.000000
vn 0.000000 0.000000 -1.000000
vn 0.000000 1.000000 0.000000
vn 0.000000 -1.000000 0.000000
usemtl None
s off
f 6/1/1 1/2/1 2/3/1
f 7/1/2 2/2/2 3/3/2
f 8/1/3 3/2/3 4/3/3
f 5/1/4 4/2/4 1/3/4
f 2/1/5 4/2/5 3/3/5
f 7/1/6 5/2/6 6/3/6
f 5/4/1 1/2/1 6/1/1
f 6/4/2 2/2/2 7/1/2
f 7/4/3 3/2/3 8/1/3
f 8/4/4 4/2/4 5/1/4
f 1/4/5 4/2/5 2/1/5
f 8/4/6 5/2/6 7/1/6
o Cube_Cube.001
v -0.000000 -3.000000 4.242640
v -4.242640 -3.000000 -0.000000
v 0.000000 -3.000000 -4.242640
v 4.242640 -3.000000 0.000000
v -0.000000 3.000000 4.242640
v -4.242640 3.000000 -0.000000
v 0.000000 3.000000 -4.242640
v 4.242640 3.000000 0.000000
vt 1.000000 0.000000
vt 1.000000 1.000000
vt 0.000000 1.000000
vt 0.000000 0.000000
vn -0.707107 0.000000 0.707107
vn -0.707107 0.000000 -0.707107
vn 0.707107 0.000000 -0.707107
vn 0.707107 0.000000 0.707107
vn 0.000000 -1.000000 0.000000
vn 0.000000 1.000000 -0.000000
usemtl None
s off
f 14/5/7 10/6/7 9/7/7
f 15/5/8 11/6/8 10/7/8
f 16/5/9 12/6/9 11/7/9
f 13/5/10 9/6/10 12/7/10
f 10/5/11 11/6/11 12/7/11
f 15/5/12 14/6/12 13/7/12
f 13/8/7 14/5/7 9/7/7
f 14/8/8 15/5/8 10/7/8
f 15/8/9 16/5/9 11/7/9
f 16/8/10 13/5/10 12/7/10
f 9/8/11 10/5/11 12/7/11
f 16/8/12 15/5/12 13/7/12
